<?xml version="1.0" encoding="utf-8"?>
<!-- Generator: Adobe Illustrator 22.1.0, SVG Export Plug-In . SVG Version: 6.00 Build 0)  -->
<svg version="1.1" xmlns="http://www.w3.org/2000/svg" xmlns:xlink="http://www.w3.org/1999/xlink" x="0px" y="0px"
	 viewBox="0 0 18 18" style="enable-background:new 0 0 18 18;" xml:space="preserve">
<style type="text/css">
	.st0{opacity:0;fill:#BFBFBF;}
	.st1{display:none;}
	.st2{display:inline;}
	.st3{fill:#BFBFBF;}
	.st4{fill:none;stroke:#BFBFBF;stroke-width:1.6;stroke-linecap:round;stroke-linejoin:round;}
</style>
<g id="Слой_3">
	<rect class="st0" width="18" height="18"/>
</g>
<g id="Слой_1" class="st1">
	<g id="icons" class="st2">
		<g id="calendar">
			<path class="st3" d="M14.4,1.8c0-1-0.8-1.8-1.8-1.8s-1.8,0.8-1.8,1.8H7.2c0-1-0.8-1.8-1.8-1.8S3.6,0.8,3.6,1.8
				C1.6,1.8,0,3.4,0,5.4v9c0,2,1.6,3.6,3.6,3.6h10.8c2,0,3.6-1.6,3.6-3.6v-9C18,3.4,16.4,1.8,14.4,1.8z M16.2,15.3
				c0,0.5-0.4,0.9-0.9,0.9H2.7c-0.5,0-0.9-0.4-0.9-0.9V8.1c0-0.5,0.4-0.9,0.9-0.9h12.6c0.5,0,0.9,0.4,0.9,0.9V15.3z"/>
			<path class="st3" d="M9.9,9H8.1c-1,0-1.8,0.8-1.8,1.8v1.8c0,1,0.8,1.8,1.8,1.8h1.8c1,0,1.8-0.8,1.8-1.8v-1.8
				C11.7,9.8,10.9,9,9.9,9z"/>
		</g>
	</g>
</g>
<g id="Слой_2">
	<g>
		<path class="st3" d="M9,1.8c4,0,7.2,3.2,7.2,7.2S13,16.2,9,16.2S1.8,13,1.8,9S5,1.8,9,1.8 M9,0C4,0,0,4,0,9s4,9,9,9s9-4,9-9
			S14,0,9,0L9,0z"/>
	</g>
	<polyline class="st4" points="9,4.2 9,9 11.4,11.4 	"/>
</g>
</svg>
