<svg width="24" height="24" viewBox="0 0 24 24" fill="none" xmlns="http://www.w3.org/2000/svg">
<path d="M7.5 23.25C11.2279 23.25 14.25 20.2279 14.25 16.5C14.25 12.7721 11.2279 9.75 7.5 9.75C3.77208 9.75 0.75 12.7721 0.75 16.5C0.75 20.2279 3.77208 23.25 7.5 23.25Z" stroke="white" stroke-width="1.5" stroke-linejoin="round"/>
<path d="M16.5 23.25C20.2279 23.25 23.25 20.2279 23.25 16.5C23.25 12.7721 20.2279 9.75 16.5 9.75C12.7721 9.75 9.75 12.7721 9.75 16.5C9.75 20.2279 12.7721 23.25 16.5 23.25Z" stroke="white" stroke-width="1.5" stroke-linejoin="round"/>
<path d="M12 14.25C15.7279 14.25 18.75 11.2279 18.75 7.5C18.75 3.77208 15.7279 0.75 12 0.75C8.27208 0.75 5.25 3.77208 5.25 7.5C5.25 11.2279 8.27208 14.25 12 14.25Z" stroke="white" stroke-width="1.5" stroke-linejoin="round"/>
</svg>
