<svg width="28" height="28" viewBox="0 0 28 28" fill="none" xmlns="http://www.w3.org/2000/svg">
<g clip-path="url(#clip0_2_34)">
<path d="M17.7062 6.54531H17.0384C15.993 5.38779 14.5607 4.67649 13.016 4.5407V4.14334H13.9102C14.0648 4.14334 14.212 4.07756 14.3151 3.96242C14.4183 3.84729 14.4675 3.69367 14.4505 3.54006L14.1342 0.673861C14.1038 0.398344 13.871 0.189819 13.5938 0.189819H11.3507C11.0736 0.189819 10.8408 0.398344 10.8103 0.673861L10.494 3.54006C10.477 3.69367 10.5263 3.84729 10.6294 3.96242C10.7326 4.07756 10.8799 4.14334 11.0344 4.14334H11.9286V4.5407C10.3839 4.67649 8.95166 5.38779 7.9062 6.54531H7.23834C6.93805 6.54531 6.69467 6.78869 6.69467 7.08897V26.903C6.69467 27.2033 6.93805 27.4467 7.23834 27.4467H7.62929V27.4564C7.62929 27.7566 7.87267 28 8.17295 28H16.7715C17.0718 28 17.3152 27.7566 17.3152 27.4564V27.4467H17.7062C18.0064 27.4467 18.2498 27.2033 18.2498 26.903V7.08897C18.2499 6.78869 18.0064 6.54531 17.7062 6.54531ZM11.8377 1.27721H13.1069L13.3032 3.05607H11.6413L11.8377 1.27721ZM7.78206 7.63263H17.1626V26.3594H7.78206V7.63263ZM12.4723 5.60392C13.5414 5.60392 14.565 5.93816 15.4149 6.54531H9.52982C10.3796 5.93816 11.4032 5.60392 12.4723 5.60392Z" fill="white"/>
<path d="M20.9236 3.30368L17.3381 2.18325L20.9236 1.06282C21.2102 0.973296 21.37 0.668361 21.2804 0.38173C21.1908 0.0950984 20.8857 -0.0646179 20.5993 0.0249658L15.3531 1.66435C15.1262 1.73527 14.9716 1.94549 14.9716 2.18325C14.9716 2.42101 15.1262 2.63123 15.3531 2.70215L20.5993 4.34153C20.6533 4.35839 20.7079 4.36642 20.7617 4.36642C20.9931 4.36642 21.2077 4.2174 21.2804 3.98477C21.37 3.69814 21.2102 3.3932 20.9236 3.30368Z" fill="white"/>
<path d="M15.9424 8.20721C15.6421 8.20721 15.3987 8.45059 15.3987 8.75088V25.2412C15.3987 25.5415 15.6421 25.7848 15.9424 25.7848C16.2427 25.7848 16.4861 25.5415 16.4861 25.2412V8.75088C16.4861 8.45059 16.2427 8.20721 15.9424 8.20721Z" fill="white"/>
</g>
<defs>
<clipPath id="clip0_2_34">
<rect width="28" height="28" fill="white"/>
</clipPath>
</defs>
</svg>
